<svg width="102" height="21" fill="none" xmlns="http://www.w3.org/2000/svg"><g clip-path="url(#a)" fill="#230B59"><path d="M24.976 19.864v-2.032h-.05c-.941 1.561-2.577 2.354-4.46 2.354-3.817 0-6.94-2.875-6.94-6.667 0-4.188 3-7.113 6.865-7.113 1.909 0 3.52.72 4.536 2.206h.05V6.778h2.453v13.086h-2.454Zm.05-6.518c0-2.553-1.834-4.66-4.56-4.66-2.454 0-4.461 2.107-4.461 4.685 0 2.453 2.007 4.61 4.46 4.61 2.529-.05 4.56-2.107 4.56-4.635ZM38.607 19.864v-7.138c0-2.775-1.09-4.064-3.271-4.064s-3.445 1.586-3.445 4.04v7.162h-2.454V6.778h2.28v1.388h.05c.967-1.239 2.33-1.735 3.817-1.735 3.147 0 5.452 1.983 5.452 5.601v7.832h-2.429ZM74.518 19.864v-2.032h-.05c-.916 1.561-2.577 2.354-4.436 2.354-3.841 0-6.939-2.875-6.939-6.667 0-4.188 2.999-7.113 6.84-7.113 1.908 0 3.52.72 4.536 2.206h.05V6.753h2.453V19.84h-2.454v.025Zm.05-6.518c0-2.553-1.834-4.684-4.56-4.684-2.454 0-4.461 2.106-4.461 4.684 0 2.453 2.007 4.61 4.46 4.61a4.606 4.606 0 0 0 4.56-4.61ZM80.714 19.864V9.009h-1.76V6.753h1.76V2.367h2.454v4.386h2.156V9.01h-2.156v10.855h-2.454ZM88.372 14.387c.57 2.18 2.28 3.568 4.312 3.568a4.255 4.255 0 0 0 3.743-2.205h2.453c-.966 2.651-3.47 4.436-6.295 4.436-3.717 0-6.691-3.271-6.691-6.766 0-4.139 3.122-7.014 6.592-7.014a6.654 6.654 0 0 1 6.79 6.543v.199c0 .42-.024.817-.074 1.239h-10.83Zm8.451-1.909c-.198-2.23-2.156-3.841-4.263-3.841-2.007 0-4.014 1.586-4.213 3.841h8.476ZM10.552 10.372a4.99 4.99 0 0 0-1.214-.942c.149-.149.297-.322.421-.496a5.107 5.107 0 0 0 .992-3.47A5.378 5.378 0 0 0 9.214 2.02 5.376 5.376 0 0 0 5.25.483H.143v19.703h6.023c2.255 0 3.668-.991 4.436-1.834a5.955 5.955 0 0 0 1.537-3.99 5.578 5.578 0 0 0-1.587-3.99ZM5.274 2.788c2.081 0 3.097 1.437 3.197 2.825a2.835 2.835 0 0 1-2.404 2.95H2.448V2.787h2.826Zm.892 15.118H2.448v-7.039h3.396c2.949 0 3.99 1.884 3.99 3.495 0 1.71-1.14 3.519-3.668 3.544ZM61.086 6.778c-2.33-.173-3.222.992-3.222.992v-.992H55.41v13.086h2.454v-7.36c0-.546.074-1.066.248-1.587.52-1.61 2.28-2.131 3.965-1.487l1.016-2.156a6.282 6.282 0 0 0-2.007-.496ZM43.043 2.367h2.454v17.497h-2.454V2.367ZM51.024 19.864l-5.428-6.543 4.858-6.543h2.775l-4.783 6.543 5.477 6.543h-2.9Z"/><path fill-rule="evenodd" clip-rule="evenodd" d="M99.277 6.406a.53.53 0 0 0-.546.52.505.505 0 0 0 .52.521.53.53 0 0 0 .546-.52c.025-.273-.223-.52-.52-.52Zm0 .124c.223 0 .421.174.446.397a.418.418 0 0 1-.421.421c-.224 0-.422-.173-.422-.396-.025-.223.149-.422.397-.422Zm.148.72c-.024-.026-.024-.075-.024-.1 0-.1-.025-.149-.124-.149h-.149v.248h-.1v-.595h.273c.124 0 .224.05.224.174 0 .074-.05.124-.124.149.074.024.099.05.099.173 0 .05 0 .074.025.124l-.1-.025Zm0-.447c0 .05-.05.1-.123.1h-.15v-.174h.174c.075 0 .1.024.1.074Z"/></g><defs><clipPath id="a"><path fill="#fff" transform="translate(.143 .483)" d="M0 0h100.893v19.703H0z"/></clipPath></defs></svg>