<svg width="40" height="40" fill="none" xmlns="http://www.w3.org/2000/svg"><path d="M20 40c11.046 0 20-8.954 20-20S31.046 0 20 0 0 8.954 0 20s8.954 20 20 20Z" fill="#EDECF8"/><path fill-rule="evenodd" clip-rule="evenodd" d="M20.535 10.375A.53.53 0 0 0 20 9.85a.53.53 0 0 0-.535.525c0 .447-.354.813-.798.864-5.237.606-9.371 4.741-9.863 9.914a.885.885 0 0 0 .54.906c.33.141.743.09 1.037-.198a2.276 2.276 0 0 1 3.174 0l.363.355a1.044 1.044 0 0 0 1.455 0 2.794 2.794 0 0 1 2.712-.687c.37.104.576.474.576.858V27.7a.53.53 0 0 1-.535.525.53.53 0 0 1-.536-.525v-.788c0-.724-.599-1.312-1.338-1.312-.74 0-1.339.587-1.339 1.312v.788c0 1.74 1.439 3.15 3.213 3.15s3.213-1.41 3.213-3.15v-5.313c0-.384.206-.754.576-.858a2.794 2.794 0 0 1 2.712.687 1.044 1.044 0 0 0 1.456 0l.362-.355a2.276 2.276 0 0 1 3.174 0 .946.946 0 0 0 1.036.198.885.885 0 0 0 .54-.906c-.49-5.173-4.625-9.307-9.862-9.914-.444-.052-.797-.417-.797-.864Zm-1.07 2.349c0-.227-.214-.393-.422-.302-.845.371-1.666 1.235-2.35 2.575-.754 1.478-1.284 3.44-1.454 5.65-.01.144.149.238.275.172a3.903 3.903 0 0 1 3.671.029c.123.067.28-.018.28-.158v-7.966Zm1.35 8.124c-.123.067-.28-.018-.28-.158v-7.966c0-.227.214-.393.422-.302.845.371 1.667 1.235 2.35 2.575.754 1.478 1.284 3.44 1.454 5.65.01.144-.148.238-.275.172a3.903 3.903 0 0 0-3.671.029Zm-10.833-.406c-.028.154.152.262.287.183a3.375 3.375 0 0 1 3.596.125c.12.082.293.007.303-.137.175-2.342.736-4.456 1.567-6.085.154-.303.32-.592.497-.866.193-.299-.095-.712-.42-.568-3.01 1.335-5.24 4.065-5.83 7.348Zm20.037 0c.027.154-.153.262-.288.183a3.375 3.375 0 0 0-3.596.125c-.12.082-.293.007-.303-.137-.175-2.342-.736-4.456-1.567-6.085a9.768 9.768 0 0 0-.497-.866c-.193-.299.095-.712.42-.568 3.01 1.335 5.24 4.065 5.83 7.348ZM20 23.037c-.137 0-.268.1-.268.236V27.7c0 .87-.719 1.575-1.606 1.575-.887 0-1.606-.705-1.606-1.575v-.788a.265.265 0 0 0-.268-.262.265.265 0 0 0-.268.262v.788c0 1.16.959 2.1 2.142 2.1 1.183 0 2.142-.94 2.142-2.1v-4.427c0-.137-.131-.236-.268-.236Z" fill="#4840BB"/></svg>