<svg width="20" height="18" viewBox="0 0 20 18" fill="none" xmlns="http://www.w3.org/2000/svg">
<path fill-rule="evenodd" clip-rule="evenodd" d="M2.79101 1.47248C2.8435 1.28227 2.70225 1.09384 2.50718 1.09384H2.43317C2.14852 1.09384 1.91777 0.860235 1.91777 0.572067C1.91777 0.283899 2.14852 0.050293 2.43317 0.050293H17.895C18.1797 0.050293 18.4104 0.283899 18.4104 0.572067C18.4104 0.860235 18.1797 1.09384 17.895 1.09384H17.5426C17.3095 1.09384 17.144 1.32383 17.2156 1.54843L19.64 9.16156C19.6525 9.20059 19.6577 9.23979 19.6567 9.27791C19.6554 9.3295 19.6456 9.3807 19.6427 9.43223C19.6 10.1806 19.2667 10.8835 18.7138 11.4059C18.1219 11.9652 17.3262 12.2737 16.5035 12.2737C15.6807 12.2737 14.885 11.9652 14.2932 11.4059C13.7008 10.8462 13.3604 10.0793 13.3596 9.27128C13.3596 9.26963 13.3609 9.2683 13.3625 9.2683C13.3641 9.2683 13.3654 9.26697 13.3654 9.26533C13.3657 9.23553 13.3699 9.20513 13.3783 9.17469L15.3649 1.97676C15.4873 1.53322 15.1579 1.09384 14.7031 1.09384H11.3667C10.9871 1.09384 10.6795 1.40532 10.6795 1.78954V15.7035C10.6795 16.0877 10.9871 16.3992 11.3667 16.3992H12.9129C13.1975 16.3992 13.4283 16.6328 13.4283 16.921C13.4283 17.2091 13.1975 17.4428 12.9129 17.4428H7.24352C6.95887 17.4428 6.72812 17.2091 6.72812 16.921C6.72812 16.6328 6.95887 16.3992 7.24352 16.3992H8.9615C9.34103 16.3992 9.64869 16.0877 9.64869 15.7035V1.78954C9.64869 1.40532 9.34103 1.09384 8.9615 1.09384H5.30131C4.83511 1.09384 4.50422 1.55381 4.64727 2.00301L6.92695 9.16156C6.93938 9.20059 6.94466 9.23979 6.94366 9.27791C6.94232 9.3295 6.93257 9.3807 6.92963 9.43222C6.88697 10.1806 6.55358 10.8835 6.00069 11.4059C5.4088 11.9652 4.61317 12.2737 3.79039 12.2737C2.96761 12.2737 2.17198 11.9652 1.58009 11.4059C0.987721 10.8462 0.647319 10.0793 0.646484 9.27128C0.646483 9.26963 0.647798 9.2683 0.64942 9.2683C0.65104 9.2683 0.652352 9.26697 0.652369 9.26533C0.652681 9.23553 0.656826 9.20513 0.665227 9.17469L2.79101 1.47248ZM2.54645 9.61615C2.11366 9.61615 1.7905 10.031 2.05057 10.3812C2.11925 10.4737 2.19699 10.5614 2.28341 10.6431C2.67741 11.0153 3.21892 11.2302 3.79039 11.2302C4.36186 11.2302 4.90338 11.0153 5.29737 10.6431C5.38379 10.5614 5.46153 10.4737 5.53021 10.3812C5.79028 10.031 5.46712 9.61615 5.03433 9.61615H2.54645ZM14.7636 10.3812C14.5036 10.031 14.8267 9.61615 15.2595 9.61615H17.7474C18.1802 9.61615 18.5033 10.031 18.2433 10.3812C18.1746 10.4737 18.0969 10.5614 18.0104 10.6431C17.6164 11.0153 17.0749 11.2302 16.5035 11.2302C15.932 11.2302 15.3905 11.0153 14.9965 10.6431C14.9101 10.5614 14.8323 10.4737 14.7636 10.3812ZM16.5333 2.80674C16.481 2.64265 16.2501 2.64725 16.2043 2.8133L14.7366 8.13114C14.6754 8.35291 14.8401 8.5726 15.0675 8.5726H17.8976C18.1307 8.5726 18.2962 8.34262 18.2247 8.11801L16.5333 2.80674ZM2.35443 8.5726C2.12699 8.5726 1.96231 8.35291 2.02351 8.13114L3.49121 2.81331C3.53704 2.64725 3.76793 2.64265 3.82018 2.80674L5.51159 8.11801C5.58312 8.34262 5.41767 8.5726 5.18457 8.5726H2.35443Z" fill="#230B59"/>
</svg>
