<svg width="26" height="26" fill="none" xmlns="http://www.w3.org/2000/svg"><path fill="#fff" fill-opacity=".01" d="M0 0h26v26H0z"/><path d="M17.333 6.187a.406.406 0 0 1-.228-.229l-.477-1.208a.406.406 0 0 0-.756 0l-.476 1.208a.406.406 0 0 1-.23.23l-1.208.476a.406.406 0 0 0 0 .756l1.209.476a.406.406 0 0 1 .229.229l.476 1.208c.135.343.62.343.756 0l.477-1.208a.406.406 0 0 1 .228-.229l1.209-.476a.406.406 0 0 0 0-.756l-1.209-.477ZM22.208 11.917a1.625 1.625 0 1 0-1.572-1.213l-4.257 4.226c-.422.42-1.104.42-1.527 0l-3.57-3.544a1.083 1.083 0 0 0-1.524-.002l-5.531 5.467a1.627 1.627 0 0 0-2.06 1.566 1.625 1.625 0 1 0 3.198-.407l4.39-4.338a1.083 1.083 0 0 1 1.525.002l3.572 3.546c.423.42 1.105.42 1.527 0l5.4-5.36c.137.037.28.057.43.057ZM4.894 9.305a.27.27 0 0 1 .504 0l.24.612a.27.27 0 0 0 .153.152l.612.241a.27.27 0 0 1 0 .504l-.612.242a.27.27 0 0 0-.152.152l-.241.611a.27.27 0 0 1-.504 0l-.241-.61a.27.27 0 0 0-.153-.153l-.611-.242a.27.27 0 0 1 0-.504l.611-.24a.27.27 0 0 0 .153-.153l.24-.612Z" fill="#18172B"/></svg>