<svg width="18" height="22" fill="none" xmlns="http://www.w3.org/2000/svg"><path fillRule="evenodd" clipRule="evenodd" d="M8.727.186a.293.293 0 0 1 .546 0l.1.254a.07.07 0 0 0 .04.04l.254.1a.293.293 0 0 1 0 .545l-.255.1a.07.07 0 0 0-.039.04l-.1.254a.293.293 0 0 1-.546 0l-.1-.255a.07.07 0 0 0-.04-.039l-.254-.1a.293.293 0 0 1 0-.545l.255-.1a.07.07 0 0 0 .039-.04l.1-.254ZM3.975 2.9a.293.293 0 0 1 .545 0l.1.255a.07.07 0 0 0 .04.04l.254.1a.293.293 0 0 1 0 .545l-.255.1a.07.07 0 0 0-.039.04l-.1.254a.293.293 0 0 1-.545 0l-.1-.255a.07.07 0 0 0-.04-.039l-.255-.1a.293.293 0 0 1 0-.545l.255-.1a.07.07 0 0 0 .04-.04l.1-.255Zm-2.85 2.377a.293.293 0 0 0-.545 0l-.1.254a.07.07 0 0 1-.04.04l-.254.1a.293.293 0 0 0 0 .545l.254.1a.07.07 0 0 1 .04.04l.1.254a.293.293 0 0 0 .545 0l.1-.254a.07.07 0 0 1 .04-.04l.254-.1a.293.293 0 0 0 0-.545l-.255-.1a.07.07 0 0 1-.039-.04l-.1-.254Zm8.821 4.856a.679.679 0 0 1-.382-.383l-.017-.042a.588.588 0 0 0-1.094 0l-.017.042a.679.679 0 0 1-.382.383l-.042.016a.588.588 0 0 0 0 1.095l.042.016a.679.679 0 0 1 .382.383l.017.042a.588.588 0 0 0 1.094 0l.017-.042a.679.679 0 0 1 .382-.383l.042-.016a.588.588 0 0 0 0-1.095l-.042-.017Zm-8.821-.103a.293.293 0 0 0-.545 0l-.1.254a.07.07 0 0 1-.04.04l-.254.1a.293.293 0 0 0 0 .545l.254.1a.07.07 0 0 1 .04.04l.1.254a.293.293 0 0 0 .545 0l.1-.254a.07.07 0 0 1 .04-.04l.254-.1a.293.293 0 0 0 0-.545l-.255-.1a.07.07 0 0 1-.039-.04l-.1-.254Zm15.75 0a.293.293 0 0 1 .545 0l.1.254a.07.07 0 0 0 .04.04l.255.1a.293.293 0 0 1 0 .545l-.255.1a.07.07 0 0 0-.04.04l-.1.254a.293.293 0 0 1-.545 0l-.1-.254a.07.07 0 0 0-.04-.04l-.254-.1a.293.293 0 0 1 0-.545l.255-.1a.07.07 0 0 0 .039-.04l.1-.254Zm-15.75 4.752a.293.293 0 0 0-.545 0l-.1.255a.07.07 0 0 1-.04.04l-.254.1a.293.293 0 0 0 0 .545l.254.1a.07.07 0 0 1 .04.04l.1.254a.293.293 0 0 0 .545 0l.1-.255a.07.07 0 0 1 .04-.039l.254-.1a.293.293 0 0 0 0-.545l-.255-.1a.07.07 0 0 1-.039-.04l-.1-.255Zm15.75 0a.293.293 0 0 1 .545 0l.1.255a.07.07 0 0 0 .04.04l.255.1a.293.293 0 0 1 0 .545l-.255.1a.07.07 0 0 0-.04.04l-.1.254a.293.293 0 0 1-.545 0l-.1-.255a.07.07 0 0 0-.04-.039l-.254-.1a.293.293 0 0 1 0-.545l.255-.1a.07.07 0 0 0 .039-.04l.1-.255Zm-2.85-11.882a.293.293 0 0 0-.545 0l-.1.255a.07.07 0 0 1-.04.04l-.254.1a.293.293 0 0 0 0 .545l.255.1a.07.07 0 0 1 .039.04l.1.254a.293.293 0 0 0 .545 0l.1-.255a.07.07 0 0 1 .04-.039l.255-.1a.293.293 0 0 0 0-.545l-.255-.1a.07.07 0 0 1-.04-.04l-.1-.255Zm-9.344 14.33a.467.467 0 0 0-.868 0 .288.288 0 0 1-.162.161.467.467 0 0 0 0 .869c.074.03.133.088.162.162a.467.467 0 0 0 .868 0 .288.288 0 0 1 .163-.162.467.467 0 0 0 0-.869.288.288 0 0 1-.163-.162Zm8.8-.071a.293.293 0 0 1 .544 0l.1.255a.07.07 0 0 0 .04.039l.255.1a.293.293 0 0 1 0 .545l-.255.1a.07.07 0 0 0-.04.04l-.1.255a.293.293 0 0 1-.545 0l-.1-.255a.07.07 0 0 0-.04-.04l-.254-.1a.293.293 0 0 1 0-.545l.255-.1a.07.07 0 0 0 .039-.04l.1-.254Zm-4.208 2.716a.293.293 0 0 0-.546 0l-.1.255a.07.07 0 0 1-.04.039l-.254.1a.293.293 0 0 0 0 .545l.255.1a.07.07 0 0 1 .039.04l.1.254a.293.293 0 0 0 .546 0l.1-.254a.07.07 0 0 1 .04-.04l.254-.1a.293.293 0 0 0 0-.545l-.255-.1a.07.07 0 0 1-.039-.04l-.1-.254Zm7.602-14.598a.293.293 0 0 1 .545 0l.1.254a.07.07 0 0 0 .04.04l.255.1a.293.293 0 0 1 0 .545l-.255.1a.07.07 0 0 0-.04.04l-.1.254a.293.293 0 0 1-.545 0l-.1-.254a.07.07 0 0 0-.04-.04l-.254-.1a.293.293 0 0 1 0-.545l.255-.1a.07.07 0 0 0 .039-.04l.1-.254ZM5.194 12.849a.679.679 0 0 1-.383-.382l-.016-.042a.588.588 0 0 0-1.095 0l-.017.042a.679.679 0 0 1-.382.382l-.042.017a.589.589 0 0 0 0 1.095l.042.016a.679.679 0 0 1 .382.383l.017.042a.588.588 0 0 0 1.095 0l.016-.042a.679.679 0 0 1 .383-.383l.042-.016a.589.589 0 0 0 0-1.095l-.042-.017Zm9.106-.424.017.042a.679.679 0 0 0 .382.382l.042.017a.589.589 0 0 1 0 1.095l-.042.016a.679.679 0 0 0-.382.383l-.017.042a.588.588 0 0 1-1.095 0l-.016-.042a.68.68 0 0 0-.383-.383l-.042-.016a.589.589 0 0 1 0-1.095l.042-.017a.68.68 0 0 0 .383-.382l.016-.042a.588.588 0 0 1 1.095 0ZM5.194 7.418a.679.679 0 0 1-.383-.383l-.016-.042a.588.588 0 0 0-1.095 0l-.017.042a.679.679 0 0 1-.382.383l-.042.016a.588.588 0 0 0 0 1.095l.042.017a.679.679 0 0 1 .382.382l.017.042a.588.588 0 0 0 1.095 0l.016-.042a.679.679 0 0 1 .383-.383l.042-.016a.588.588 0 0 0 0-1.095l-.042-.016Zm4.353-3.14.017.041a.679.679 0 0 0 .382.383l.042.016a.588.588 0 0 1 0 1.095l-.042.017a.679.679 0 0 0-.382.382l-.017.042a.588.588 0 0 1-1.094 0l-.017-.042a.679.679 0 0 0-.382-.382l-.042-.017a.588.588 0 0 1 0-1.095l.042-.016a.679.679 0 0 0 .382-.383l.017-.042a.588.588 0 0 1 1.094 0Zm5.152 3.14a.679.679 0 0 1-.382-.383l-.017-.042a.588.588 0 0 0-1.095 0l-.016.042a.68.68 0 0 1-.383.383l-.042.016a.588.588 0 0 0 0 1.095l.042.017a.68.68 0 0 1 .383.382l.016.042a.588.588 0 0 0 1.095 0l.017-.042a.679.679 0 0 1 .382-.383l.042-.016a.588.588 0 0 0 0-1.095l-.042-.016ZM9.547 15.14l.017.042a.679.679 0 0 0 .382.382l.042.017a.588.588 0 0 1 0 1.095l-.042.016a.679.679 0 0 0-.382.383l-.017.042a.588.588 0 0 1-1.094 0l-.017-.042a.679.679 0 0 0-.382-.383l-.042-.016a.589.589 0 0 1 0-1.095l.042-.017a.679.679 0 0 0 .382-.382l.017-.042a.588.588 0 0 1 1.094 0Z" fill="#230B59"/></svg>