<svg xmlns="http://www.w3.org/2000/svg" fill="none" viewBox="0 0 238 70"><g clip-path="url(#a)"><path fill="#A6A6A6" d="M219.047 0H18.964c-.73 0-1.45 0-2.178.003-.609.004-1.213.014-1.828.022a29.782 29.782 0 0 0-3.985.31 14.46 14.46 0 0 0-3.78 1.097 12.87 12.87 0 0 0-3.22 2.063c-.95.828-1.74 1.786-2.343 2.837a10.613 10.613 0 0 0-1.243 3.33 20.085 20.085 0 0 0-.357 3.504c-.018.536-.02 1.075-.03 1.611v40.45c.01.544.012 1.07.03 1.614.016 1.174.135 2.345.357 3.503.218 1.16.637 2.284 1.243 3.332a11.042 11.042 0 0 0 2.343 2.825 12.51 12.51 0 0 0 3.22 2.063 14.62 14.62 0 0 0 3.78 1.104c1.318.19 2.65.294 3.986.31.614.011 1.218.018 1.827.018.728.004 1.448.004 2.177.004h200.084c.715 0 1.441 0 2.156-.004.606 0 1.228-.007 1.834-.018a29.933 29.933 0 0 0 3.978-.31 14.85 14.85 0 0 0 3.795-1.104 12.556 12.556 0 0 0 3.216-2.063c.947-.827 1.74-1.78 2.35-2.825a10.612 10.612 0 0 0 1.232-3.332c.221-1.158.345-2.33.369-3.503.007-.544.007-1.07.007-1.614.016-.635.016-1.268.016-1.914V16.688c0-.64 0-1.277-.016-1.91 0-.537 0-1.076-.007-1.612a20.972 20.972 0 0 0-.369-3.504 10.655 10.655 0 0 0-1.232-3.33c-1.227-2.106-3.174-3.82-5.566-4.9-1.196-.53-2.475-.9-3.795-1.097a29.401 29.401 0 0 0-3.978-.31c-.606-.008-1.228-.019-1.834-.022C220.488 0 219.762 0 219.047 0z"/><path fill="#000" d="M16.796 68.469a90.25 90.25 0 0 1-1.799-.019 28.588 28.588 0 0 1-3.717-.285 12.844 12.844 0 0 1-3.295-.96 10.806 10.806 0 0 1-2.779-1.778 9.475 9.475 0 0 1-2.03-2.444 9.2 9.2 0 0 1-1.08-2.9 19.188 19.188 0 0 1-.33-3.282c-.013-.369-.03-1.597-.03-1.597V14.778s.018-1.21.03-1.566c.015-1.098.125-2.193.329-3.276a9.251 9.251 0 0 1 1.08-2.909 9.558 9.558 0 0 1 2.02-2.446 11.124 11.124 0 0 1 2.789-1.79 12.716 12.716 0 0 1 3.288-.951 28.366 28.366 0 0 1 3.73-.287l1.795-.022h204.396l1.816.022c1.239.013 2.474.109 3.697.285a12.99 12.99 0 0 1 3.323.959c2.064.936 3.744 2.417 4.803 4.235a9.278 9.278 0 0 1 1.065 2.885c.206 1.092.322 2.196.345 3.303.006.495.006 1.028.006 1.558.016.656.016 1.28.016 1.91v36.625c0 .636 0 1.257-.016 1.882 0 .57 0 1.09-.008 1.627a19.673 19.673 0 0 1-.34 3.244 9.183 9.183 0 0 1-1.074 2.922 9.761 9.761 0 0 1-2.02 2.425 10.806 10.806 0 0 1-2.783 1.79 12.8 12.8 0 0 1-3.317.962c-1.23.176-2.472.272-3.718.285a88.56 88.56 0 0 1-1.785.019l-2.156.003-202.251-.003z"/><path fill="#fff" d="M48 33.69a9.062 9.062 0 0 1 1.176-4.35A9.04 9.04 0 0 1 52.3 26.1a9.229 9.229 0 0 0-7.282-3.945c-3.065-.323-6.035 1.836-7.596 1.836-1.592 0-3.996-1.805-6.585-1.751a9.685 9.685 0 0 0-4.736 1.416 9.709 9.709 0 0 0-3.425 3.571c-3.53 6.122-.897 15.119 2.484 20.067 1.69 2.423 3.667 5.13 6.254 5.034 2.53-.105 3.476-1.617 6.531-1.617 3.027 0 3.913 1.617 6.552 1.556 2.716-.044 4.427-2.434 6.06-4.88a20.055 20.055 0 0 0 2.77-5.654 8.73 8.73 0 0 1-3.872-3.218A8.755 8.755 0 0 1 48 33.69zM43.016 18.9a8.92 8.92 0 0 0 2.033-6.382 9.04 9.04 0 0 0-5.852 3.034 8.48 8.48 0 0 0-2.087 6.146 7.467 7.467 0 0 0 5.906-2.798zM85.37 46.193h-8.638l-2.074 6.136H71l8.18-22.703h3.801l8.181 22.703h-3.72l-2.073-6.136zm-7.743-2.832h6.846l-3.375-9.959h-.094l-3.377 9.96zm31.203.693c0 5.144-2.748 8.449-6.894 8.449a5.592 5.592 0 0 1-5.198-2.896h-.079v8.198h-3.39V35.777h3.282v2.753h.062a5.866 5.866 0 0 1 5.26-2.926c4.193 0 6.957 3.32 6.957 8.45zm-3.486 0c0-3.351-1.728-5.554-4.365-5.554-2.591 0-4.334 2.25-4.334 5.554 0 3.335 1.743 5.569 4.334 5.569 2.637 0 4.365-2.187 4.365-5.569zm21.668 0c0 5.144-2.747 8.449-6.894 8.449a5.591 5.591 0 0 1-3.014-.7 5.611 5.611 0 0 1-2.184-2.196h-.078v8.198h-3.391V35.777h3.282v2.753h.062a5.852 5.852 0 0 1 5.261-2.926c4.192 0 6.956 3.32 6.956 8.45zm-3.485 0c0-3.351-1.729-5.554-4.366-5.554-2.591 0-4.333 2.25-4.333 5.554 0 3.335 1.742 5.569 4.333 5.569 2.637 0 4.366-2.187 4.366-5.569zm15.502 1.95c.252 2.251 2.434 3.73 5.417 3.73 2.858 0 4.915-1.479 4.915-3.509 0-1.762-1.24-2.817-4.177-3.54l-2.937-.71c-4.16-1.006-6.092-2.956-6.092-6.12 0-3.917 3.407-6.607 8.245-6.607 4.788 0 8.07 2.69 8.181 6.607h-3.423c-.205-2.265-2.075-3.633-4.806-3.633-2.732 0-4.601 1.384-4.601 3.398 0 1.605 1.194 2.55 4.114 3.272l2.497.614c4.649 1.102 6.58 2.973 6.58 6.294 0 4.248-3.376 6.908-8.747 6.908-5.025 0-8.418-2.598-8.637-6.704h3.471zm21.232-14.144v3.917h3.141v2.69h-3.141v9.126c0 1.418.629 2.078 2.01 2.078.373-.006.745-.033 1.115-.078v2.674a9.294 9.294 0 0 1-1.883.157c-3.345 0-4.649-1.258-4.649-4.469v-9.487h-2.402v-2.69h2.402V31.86h3.407zm4.961 12.194c0-5.208 3.061-8.48 7.835-8.48 4.789 0 7.836 3.272 7.836 8.48 0 5.223-3.031 8.481-7.836 8.481-4.804 0-7.835-3.258-7.835-8.48zm12.216 0c0-3.572-1.634-5.68-4.381-5.68-2.748 0-4.38 2.124-4.38 5.68 0 3.587 1.632 5.68 4.38 5.68 2.747 0 4.381-2.093 4.381-5.68zm6.251-8.277h3.234v2.817h.079a3.948 3.948 0 0 1 1.457-2.202 3.932 3.932 0 0 1 2.516-.789c.391 0 .781.042 1.162.127v3.178a4.727 4.727 0 0 0-1.523-.205 3.41 3.41 0 0 0-2.641 1.09 3.422 3.422 0 0 0-.893 2.718v9.818h-3.391V35.777zm24.083 11.691c-.456 3.005-3.377 5.067-7.114 5.067-4.805 0-7.788-3.226-7.788-8.402 0-5.192 2.999-8.56 7.646-8.56 4.57 0 7.445 3.147 7.445 8.165v1.165h-11.668v.205a4.317 4.317 0 0 0 2.661 4.372 4.285 4.285 0 0 0 1.783.316 3.733 3.733 0 0 0 3.815-2.328h3.22zm-11.463-4.94h8.259a3.996 3.996 0 0 0-1.11-2.988 3.972 3.972 0 0 0-2.942-1.213 4.178 4.178 0 0 0-3.89 2.588 4.187 4.187 0 0 0-.317 1.613zM77.202 12.537a4.808 4.808 0 0 1 3.842 1.496 4.827 4.827 0 0 1 1.28 3.925c0 3.485-1.879 5.488-5.122 5.488h-3.933V12.537h3.933zm-2.242 9.367h2.053a3.417 3.417 0 0 0 2.727-1.106 3.432 3.432 0 0 0 .864-2.818 3.445 3.445 0 0 0-2.111-3.654 3.426 3.426 0 0 0-1.48-.247H74.96v7.825zm9.275-2.577a3.907 3.907 0 0 1 2.3-3.938 3.886 3.886 0 0 1 4.455.943 3.902 3.902 0 0 1 .995 2.995 3.906 3.906 0 0 1-2.299 3.944 3.886 3.886 0 0 1-4.46-.945 3.903 3.903 0 0 1-.99-3zm6.082 0c0-1.785-.8-2.828-2.204-2.828-1.41 0-2.203 1.043-2.203 2.828 0 1.798.793 2.834 2.203 2.834 1.404 0 2.204-1.043 2.204-2.834zm11.969 4.119h-1.683l-1.698-6.063h-.128l-1.691 6.063H95.42l-2.265-8.232H94.8l1.472 6.282h.12l1.69-6.282h1.556l1.689 6.282h.128l1.465-6.282h1.621l-2.255 8.232zm4.16-8.232h1.561v1.308h.122a2.461 2.461 0 0 1 2.451-1.467 2.67 2.67 0 0 1 2.753 1.875c.119.384.15.79.091 1.187v5.33h-1.621v-4.922c0-1.323-.574-1.981-1.773-1.981a1.877 1.877 0 0 0-1.46.591 1.896 1.896 0 0 0-.502 1.495v4.816h-1.622v-8.232zM116.008 12h1.622v11.446h-1.622V12zm3.876 7.326a3.906 3.906 0 0 1 2.3-3.938 3.888 3.888 0 0 1 5.269 2.336c.171.515.233 1.061.181 1.602a3.898 3.898 0 0 1-5.452 3.945 3.896 3.896 0 0 1-2.119-2.34 3.898 3.898 0 0 1-.179-1.605zm6.081 0c0-1.784-.8-2.828-2.204-2.828-1.409 0-2.202 1.044-2.202 2.828 0 1.8.793 2.835 2.202 2.835 1.404 0 2.204-1.043 2.204-2.835zm3.376 1.792c0-1.481 1.101-2.336 3.056-2.457l2.226-.129v-.71c0-.87-.574-1.36-1.682-1.36-.906 0-1.533.332-1.713.914h-1.57c.166-1.414 1.494-2.32 3.357-2.32 2.06 0 3.222 1.027 3.222 2.766v5.625h-1.561V22.29h-.128a2.769 2.769 0 0 1-2.468 1.292 2.475 2.475 0 0 1-1.915-.623 2.49 2.49 0 0 1-.824-1.84zm5.282-.703v-.688l-2.007.128c-1.131.076-1.644.462-1.644 1.188 0 .74.641 1.172 1.523 1.172a1.935 1.935 0 0 0 2.128-1.8zm3.745-1.089c0-2.6 1.335-4.249 3.411-4.249a2.703 2.703 0 0 1 2.519 1.444h.122V12h1.621v11.446h-1.554v-1.3h-.128a2.85 2.85 0 0 1-2.58 1.436c-2.09 0-3.411-1.648-3.411-4.256zm1.675 0c0 1.747.822 2.797 2.196 2.797 1.366 0 2.211-1.066 2.211-2.79 0-1.715-.854-2.796-2.211-2.796-1.365 0-2.196 1.058-2.196 2.79zm12.707.001a3.905 3.905 0 0 1 2.3-3.938 3.884 3.884 0 0 1 4.455.943 3.896 3.896 0 0 1 .995 2.995 3.915 3.915 0 0 1-.992 2.999 3.892 3.892 0 0 1-4.46.945 3.898 3.898 0 0 1-2.298-3.944zm6.082 0c0-1.785-.8-2.828-2.205-2.828-1.409 0-2.202 1.043-2.202 2.828 0 1.798.793 2.834 2.202 2.834 1.405 0 2.205-1.043 2.205-2.834zm3.843-4.113h1.561v1.308h.121a2.456 2.456 0 0 1 2.452-1.467 2.671 2.671 0 0 1 2.844 3.062v5.33h-1.621v-4.922c0-1.323-.574-1.981-1.773-1.981a1.884 1.884 0 0 0-1.962 2.086v4.816h-1.622v-8.232zm16.141-2.05v2.087h1.78v1.369h-1.78v4.233c0 .862.354 1.24 1.162 1.24.206 0 .413-.013.618-.038v1.354a5.31 5.31 0 0 1-.882.083c-1.803 0-2.522-.636-2.522-2.223v-4.65h-1.304v-1.368h1.304v-2.087h1.624zM182.811 12h1.607v4.537h.128a2.526 2.526 0 0 1 2.506-1.475 2.701 2.701 0 0 1 2.727 1.89c.12.381.155.784.102 1.18v5.314h-1.623v-4.914c0-1.315-.611-1.981-1.757-1.981a1.913 1.913 0 0 0-1.519.562 1.924 1.924 0 0 0-.55 1.525v4.808h-1.621V12zm16.525 9.223a3.339 3.339 0 0 1-3.56 2.382 3.731 3.731 0 0 1-3.668-2.646 3.75 3.75 0 0 1-.128-1.603 3.803 3.803 0 0 1 2.213-3.972 3.78 3.78 0 0 1 1.576-.33c2.286 0 3.665 1.566 3.665 4.151v.567h-5.802v.091a2.183 2.183 0 0 0 1.308 2.182c.278.12.578.18.88.176a1.966 1.966 0 0 0 1.955-.998h1.561zm-5.704-2.653h4.15a1.98 1.98 0 0 0-.54-1.515 1.972 1.972 0 0 0-1.482-.617 2.1 2.1 0 0 0-2.128 2.132z"/></g><defs><clipPath id="a"><path fill="#fff" d="M0 0h238v70H0z"/></clipPath></defs></svg>