<svg xmlns="http://www.w3.org/2000/svg" fill="none" viewBox="0 0 238 70"><path fill="#000" fill-rule="evenodd" d="M229.182 70H8.818C3.958 70 0 66.055 0 61.25V8.75C0 3.928 3.958 0 8.818 0h220.364C234.038 0 238 3.928 238 8.75v52.5c0 4.805-3.962 8.75-8.818 8.75z" clip-rule="evenodd"/><path fill="#A6A6A6" fill-rule="evenodd" d="M229.182 1.4c4.076 0 7.413 3.304 7.413 7.35v52.5c0 4.046-3.315 7.35-7.413 7.35H8.818c-4.076 0-7.413-3.304-7.413-7.35V8.75c0-4.046 3.315-7.35 7.413-7.35h220.364zm0-1.4H8.818C3.958 0 0 3.945 0 8.75v52.5C0 66.072 3.958 70 8.818 70h220.364c4.856 0 8.818-3.928 8.818-8.75V8.75c0-4.805-3.962-8.75-8.818-8.75z" clip-rule="evenodd"/><path fill="#fff" d="M125.379 23.156c-1.589 0-2.929-.554-3.989-1.645a5.598 5.598 0 0 1-1.611-4.015c0-1.593.543-2.942 1.611-4.01 1.056-1.092 2.395-1.646 3.985-1.646 1.572 0 2.911.554 3.989 1.645 1.068 1.104 1.611 2.453 1.611 4.01-.018 1.598-.561 2.947-1.611 4.011-1.056 1.1-2.395 1.65-3.985 1.65zm-47.29 0c-1.555 0-2.903-.546-4.007-1.623-1.094-1.074-1.65-2.431-1.65-4.033 0-1.602.556-2.959 1.65-4.032 1.082-1.078 2.43-1.624 4.006-1.624a5.6 5.6 0 0 1 2.238.463c.705.3 1.278.711 1.703 1.213l.105.127-1.186 1.16-.123-.144c-.67-.794-1.568-1.182-2.754-1.182-1.06 0-1.983.375-2.745 1.117-.767.746-1.156 1.724-1.156 2.906 0 1.183.39 2.16 1.156 2.907a3.813 3.813 0 0 0 2.745 1.117c1.13 0 2.08-.375 2.82-1.117.437-.437.709-1.048.805-1.82h-3.805V16.96h5.438l.022.148c.04.275.079.559.079.82 0 1.506-.455 2.724-1.357 3.623-1.025 1.065-2.365 1.606-3.985 1.606zm62.877-.231h-1.677l-5.136-8.192.044 1.475v6.712h-1.677V12.075h1.914l.052.083 4.83 7.716-.044-1.47v-6.329h1.694v10.85zm-28.188 0h-1.699v-9.217h-2.946v-1.633h7.587v1.633h-2.946v9.217h.004zm-6.029 0h-1.694v-10.85h1.694v10.85zm-9.523 0h-1.694v-9.217h-2.947v-1.633h7.588v1.633h-2.947v9.217zm-5.713-.018h-6.498V12.075h6.498v1.633h-4.8v2.976h4.331v1.615h-4.33v2.976h4.799v1.632zm31.121-2.518a3.755 3.755 0 0 0 2.745 1.135c1.099 0 1.997-.371 2.745-1.135.745-.742 1.121-1.715 1.121-2.889 0-1.174-.376-2.151-1.116-2.889a3.763 3.763 0 0 0-2.745-1.135c-1.099 0-1.997.371-2.741 1.135-.745.742-1.121 1.715-1.121 2.89 0 1.173.372 2.15 1.112 2.888z"/><path fill="#fff" fill-rule="evenodd" d="M119.622 38.072c-4.138 0-7.492 3.13-7.492 7.445 0 4.277 3.376 7.445 7.492 7.445 4.137 0 7.491-3.15 7.491-7.445 0-4.316-3.354-7.445-7.491-7.445zm0 11.94c-2.264 0-4.212-1.867-4.212-4.512 0-2.684 1.952-4.513 4.212-4.513 2.263 0 4.212 1.829 4.212 4.513.004 2.662-1.949 4.512-4.212 4.512zm-16.345-11.94c-4.137 0-7.491 3.13-7.491 7.445 0 4.277 3.376 7.445 7.491 7.445 4.138 0 7.492-3.15 7.492-7.445 0-4.316-3.359-7.445-7.492-7.445zm0 11.94c-2.263 0-4.212-1.867-4.212-4.512 0-2.684 1.953-4.513 4.212-4.513 2.264 0 4.212 1.829 4.212 4.513 0 2.662-1.948 4.512-4.212 4.512zm-19.449-9.666v3.15h7.588c-.232 1.768-.819 3.073-1.716 3.968-1.112 1.108-2.829 2.313-5.854 2.313-4.663 0-8.31-3.753-8.31-8.401s3.647-8.401 8.31-8.401c2.517 0 4.352.99 5.714 2.256l2.242-2.234c-1.892-1.807-4.41-3.19-7.939-3.19C77.468 29.807 72.1 35 72.1 41.358c0 6.376 5.363 11.552 11.764 11.552 3.455 0 6.047-1.126 8.096-3.247 2.089-2.081 2.75-5.018 2.75-7.388 0-.738-.057-1.401-.175-1.964h-10.71c.004-.004.004.035.004.035zm79.551 2.453c-.626-1.672-2.517-4.744-6.397-4.744-3.844 0-7.04 3.015-7.04 7.445 0 4.18 3.161 7.445 7.413 7.445 3.415 0 5.403-2.082 6.221-3.304l-2.535-1.693c-.84 1.244-2.009 2.06-3.669 2.06-1.677 0-2.85-.76-3.63-2.256l9.988-4.124c0 .004-.351-.83-.351-.83zm-10.184 2.487c-.079-2.876 2.242-4.338 3.901-4.338 1.309 0 2.4.642 2.772 1.576l-6.673 2.762zm-8.113 7.214h3.279V30.627h-3.279V52.5zm-5.385-12.774h-.119c-.74-.877-2.145-1.671-3.94-1.671-3.726 0-7.159 3.269-7.159 7.467 0 4.18 3.415 7.41 7.159 7.41 1.773 0 3.2-.799 3.94-1.693h.119v1.069c0 2.84-1.524 4.373-3.98 4.373-2.01 0-3.258-1.44-3.766-2.645l-2.85 1.187c.819 1.964 3.003 4.395 6.611 4.395 3.844 0 7.102-2.257 7.102-7.76V38.5h-3.1v1.226h-.017zm-3.766 10.286c-2.263 0-4.155-1.885-4.155-4.49 0-2.627 1.892-4.53 4.155-4.53 2.242 0 3.98 1.924 3.98 4.53.022 2.605-1.734 4.49-3.98 4.49zm42.803-19.385h-7.841V52.5h3.279v-8.283h4.567c3.629 0 7.198-2.623 7.198-6.786 0-4.164-3.556-6.804-7.203-6.804zm.097 10.535h-4.663v-7.506h4.663c2.456 0 3.844 2.02 3.844 3.753 0 1.715-1.406 3.753-3.844 3.753zm20.25-3.13c-2.382 0-4.839 1.053-5.854 3.344l2.907 1.204c.626-1.204 1.773-1.614 2.986-1.614 1.699 0 3.415 1.012 3.455 2.819v.231c-.587-.332-1.874-.838-3.416-.838-3.139 0-6.322 1.71-6.322 4.919 0 2.937 2.574 4.822 5.442 4.822 2.203 0 3.415-.99 4.173-2.138h.118v1.693h3.161v-8.38c0-3.9-2.907-6.061-6.65-6.061zm-.412 11.98c-1.073 0-2.574-.523-2.574-1.867 0-1.694 1.873-2.335 3.472-2.335 1.444 0 2.127.31 2.986.737a3.944 3.944 0 0 1-3.884 3.465zM217.264 38.5l-3.765 9.487h-.119l-3.901-9.487h-3.529l5.854 13.262-3.336 7.371h3.415l9.006-20.633h-3.625zm-29.519 14h3.279V30.627h-3.279V52.5z" clip-rule="evenodd"/><path fill="url(#a)" fill-rule="evenodd" d="M18.32 13.184c-.509.545-.802 1.379-.802 2.47V54.35c0 1.091.293 1.925.819 2.448l.135.118 21.752-21.68v-.485l-21.77-21.685-.135.118z" clip-rule="evenodd"/><path fill="url(#b)" fill-rule="evenodd" d="m47.462 42.484-7.255-7.23v-.507l7.255-7.231.157.096 8.582 4.861c2.456 1.38 2.456 3.657 0 5.054l-8.582 4.861-.157.096z" clip-rule="evenodd"/><path fill="url(#c)" fill-rule="evenodd" d="M47.62 42.388 40.206 35 18.319 56.816c.801.855 2.146.951 3.647.118L47.62 42.388z" clip-rule="evenodd"/><path fill="url(#d)" fill-rule="evenodd" d="M47.62 27.612 21.965 13.088c-1.502-.855-2.85-.737-3.647.118L40.207 35l7.412-7.388z" clip-rule="evenodd"/><path fill="#000" fill-rule="evenodd" d="M47.462 42.231 21.984 56.66c-1.423.816-2.693.76-3.512.018l-.135.135.135.118c.82.737 2.089.798 3.512-.018L47.637 42.39l-.175-.158z" clip-rule="evenodd" opacity=".2"/><path fill="#000" fill-rule="evenodd" d="m56.2 37.274-8.76 4.957.157.157 8.582-4.861c1.23-.698 1.834-1.615 1.834-2.527-.074.838-.7 1.632-1.812 2.274z" clip-rule="evenodd" opacity=".12"/><path fill="#fff" fill-rule="evenodd" d="m21.966 13.341 34.235 19.385c1.112.624 1.738 1.44 1.834 2.274 0-.912-.604-1.829-1.834-2.527L21.966 13.088c-2.456-1.401-4.448-.231-4.448 2.566v.253c0-2.802 1.992-3.95 4.448-2.566z" clip-rule="evenodd" opacity=".25"/><defs><linearGradient id="a" x1="38.273" x2="3.446" y1="15.236" y2="24.547" gradientUnits="userSpaceOnUse"><stop stop-color="#00A0FF"/><stop offset=".007" stop-color="#00A1FF"/><stop offset=".26" stop-color="#00BEFF"/><stop offset=".512" stop-color="#00D2FF"/><stop offset=".76" stop-color="#00DFFF"/><stop offset="1" stop-color="#00E3FF"/></linearGradient><linearGradient id="b" x1="59.404" x2="16.921" y1="35" y2="35" gradientUnits="userSpaceOnUse"><stop stop-color="#FFE000"/><stop offset=".409" stop-color="#FFBD00"/><stop offset=".775" stop-color="orange"/><stop offset="1" stop-color="#FF9C00"/></linearGradient><linearGradient id="c" x1="43.589" x2="15.752" y1="39.02" y2="86.025" gradientUnits="userSpaceOnUse"><stop stop-color="#FF3A44"/><stop offset="1" stop-color="#C31162"/></linearGradient><linearGradient id="d" x1="12.808" x2="25.227" y1=".313" y2="21.306" gradientUnits="userSpaceOnUse"><stop stop-color="#32A071"/><stop offset=".069" stop-color="#2DA771"/><stop offset=".476" stop-color="#15CF74"/><stop offset=".801" stop-color="#06E775"/><stop offset="1" stop-color="#00F076"/></linearGradient></defs></svg>