<svg width="23" height="18" viewBox="0 0 23 18" fill="none" xmlns="http://www.w3.org/2000/svg">
<path fillRule="evenodd" clipRule="evenodd" d="M20.1904 0.922291C20.2711 0.951085 20.3559 0.96782 20.4417 0.96782H21.1131C23.0475 0.96782 23.7255 3.53433 22.0435 4.48971L17.2629 7.20509C17.1024 7.29626 16.9855 7.44834 16.9387 7.62689L14.9133 15.3465C14.7574 15.9406 14.3939 16.4591 13.8886 16.8082L13.4854 17.0867C13.0629 17.3786 12.4814 17.119 12.4165 16.6096L11.7555 11.4205C11.6939 10.9371 11.1614 10.6707 10.7377 10.9114L8.12996 12.3926C7.33055 12.8467 6.34943 12.8389 5.5573 12.3723L0.739633 9.53413C0.0463525 9.12571 0.248119 8.0732 1.04329 7.95013L2.60697 7.7081C2.84807 7.67079 3.09412 7.68066 3.33146 7.73716L6.05823 8.3864C6.10308 8.39708 6.15035 8.38922 6.18934 8.36459L7.47549 7.55229C7.87427 7.30043 7.90516 6.73032 7.53594 6.43684L3.00822 2.83788C2.6055 2.51777 2.68616 1.88456 3.15626 1.67563L3.60312 1.47702C4.16434 1.22759 4.79635 1.18748 5.3846 1.36395L13.0039 3.64973C13.2094 3.7114 13.432 3.67317 13.6052 3.54643L16.4458 1.46798C17.5303 0.674415 18.9336 0.474321 20.1904 0.922291ZM12.9916 9.63122C12.75 9.76842 12.6153 10.0379 12.6504 10.3134L13.2356 14.9076C13.2928 15.3566 13.8045 15.5236 13.9194 15.0858L15.351 9.62908C15.5049 9.04267 14.8772 8.56016 14.3501 8.85959L12.9916 9.63122ZM9.61165 6.8108C9.57765 6.75697 9.53529 6.7116 9.48734 6.67533L4.88758 3.01911C4.53535 2.73913 4.65836 2.21887 5.08933 2.34817L11.5608 4.2896C11.8605 4.37953 11.9282 4.77351 11.6756 4.95832C11.4467 5.12588 11.3968 5.44735 11.5644 5.67635C11.732 5.90534 12.0534 5.95515 12.2824 5.78759L17.0526 2.29725C17.907 1.67207 19.0266 1.54073 20.0025 1.95121C20.0718 1.98036 20.1462 1.99537 20.2214 1.99537H21.1131C21.9924 1.99537 22.3006 3.16197 21.536 3.59623L7.62246 11.4991C7.14282 11.7716 6.55414 11.7669 6.07887 11.4869L2.62451 9.45193C2.30572 9.26413 2.3985 8.78016 2.76414 8.72356C2.87373 8.7066 2.98557 8.71109 3.09345 8.73677L5.82022 9.386C6.13424 9.46077 6.46513 9.40574 6.73805 9.23337L9.45161 7.51955C9.69151 7.36803 9.76317 7.05071 9.61165 6.8108Z" fill="#230B59"/>
</svg>
